<svg width="28" height="22" viewBox="0 0 28 22" fill="none" xmlns="http://www.w3.org/2000/svg">
<g clip-path="url(#clip0_48_1660)">
<path d="M0.958252 20.0592C0.958252 20.5749 1.34888 20.9079 1.93481 20.9079H26.2146C26.7517 20.9079 27.2034 20.5319 27.2034 20.0485C27.2034 19.5759 26.7517 19.1891 26.2146 19.1891H3.26538C3.00903 19.1891 2.92359 19.114 2.92359 18.8884V1.90495C2.92359 1.44304 2.48413 1.04558 1.94702 1.04558C1.39771 1.04558 0.958252 1.44304 0.958252 1.90495V20.0592ZM2.23999 13.3777L10.0891 9.38152L15.741 13.6461L25.7873 8.38249L25.0184 7.28679L15.8387 12.0993L10.2112 7.85612L2.23999 11.9059V13.3777ZM9.93042 10.8317C11.1267 10.8317 12.1033 9.97234 12.1033 8.9196C12.1033 7.86687 11.1267 7.01823 9.93042 7.01823C8.73413 7.01823 7.75756 7.86687 7.75756 8.9196C7.75756 9.97234 8.73413 10.8317 9.93042 10.8317ZM15.6921 14.7741C16.8885 14.7741 17.8528 13.9147 17.8528 12.8619C17.8528 11.8092 16.8885 10.9606 15.6921 10.9606C14.4959 10.9606 13.5193 11.8092 13.5193 12.8619C13.5193 13.9147 14.4959 14.7741 15.6921 14.7741ZM24.8963 9.8864C26.0925 9.8864 27.0691 9.02703 27.0691 7.97429C27.0691 6.92155 26.0925 6.06218 24.8963 6.06218C23.6999 6.06218 22.7234 6.92155 22.7234 7.97429C22.7234 9.02703 23.6999 9.8864 24.8963 9.8864Z" fill="#EC5952"/>
</g>
<defs>
<clipPath id="clip0_48_1660">
<rect width="26.2451" height="19.9912" fill="white" transform="translate(0.958252 0.916672)"/>
</clipPath>
</defs>
</svg>
