<svg width="29" height="24" viewBox="0 0 29 24" fill="none" xmlns="http://www.w3.org/2000/svg">
<g clip-path="url(#clip0_48_2137)">
<path d="M6.01172 17.9258H8.88281C9.57422 17.9258 10.0312 17.457 10.0312 16.8008V14.6328C10.0312 13.9648 9.57422 13.5078 8.88281 13.5078H6.01172C5.32031 13.5078 4.86328 13.9648 4.86328 14.6328V16.8008C4.86328 17.457 5.32031 17.9258 6.01172 17.9258ZM1.69922 9.33594H27.3516V6.67578H1.69922V9.33594ZM4.42969 22.0273H24.6094C27.0703 22.0273 28.2891 20.8203 28.2891 18.4062V5.64453C28.2891 3.23047 27.0703 2.01172 24.6094 2.01172H4.42969C1.98047 2.01172 0.75 3.23047 0.75 5.64453V18.4062C0.75 20.8203 1.98047 22.0273 4.42969 22.0273ZM4.45312 20.1406C3.28125 20.1406 2.63672 19.5195 2.63672 18.3008V5.75C2.63672 4.53125 3.28125 3.89844 4.45312 3.89844H24.5859C25.7344 3.89844 26.4023 4.53125 26.4023 5.75V18.3008C26.4023 19.5195 25.7344 20.1406 24.5859 20.1406H4.45312Z" fill="#EC5952"/>
</g>
<defs>
<clipPath id="clip0_48_2137">
<rect width="27.5391" height="20.0273" fill="white" transform="translate(0.75 2)"/>
</clipPath>
</defs>
</svg>
