<svg width="25" height="26" viewBox="0 0 25 26" fill="none" xmlns="http://www.w3.org/2000/svg">
<g clip-path="url(#clip0_48_2741)">
<path d="M6.38281 25.125H18.8281C21.2539 25.125 22.4609 23.8945 22.4609 21.457V10.8164C22.4609 9.30469 22.2852 8.64844 21.3477 7.6875L14.8906 1.11328C14 0.199219 13.2617 0 11.9492 0H6.38281C3.96875 0 2.75 1.24219 2.75 3.67969V21.457C2.75 23.9062 3.95703 25.125 6.38281 25.125ZM6.46484 23.2383C5.25781 23.2383 4.63672 22.5938 4.63672 21.4219V3.71484C4.63672 2.55469 5.25781 1.88672 6.47656 1.88672H11.6914V8.69531C11.6914 10.1719 12.4297 10.8984 13.8945 10.8984H20.5742V21.4219C20.5742 22.5938 19.9531 23.2383 18.7344 23.2383H6.46484ZM14.1055 9.12891C13.6367 9.12891 13.4609 8.94141 13.4609 8.47266V2.25L20.2109 9.12891H14.1055Z" fill="black"/>
</g>
<defs>
<clipPath id="clip0_48_2741">
<rect width="19.7109" height="25.1367" fill="white" transform="translate(2.75)"/>
</clipPath>
</defs>
</svg>
