<svg width="29" height="27" viewBox="0 0 29 27" fill="none" xmlns="http://www.w3.org/2000/svg">
<g clip-path="url(#clip0_48_2972)">
<path d="M10.8555 23.4053H17.6172V14.874C17.6172 14.335 17.2656 13.9834 16.7266 13.9834H11.7578C11.207 13.9834 10.8555 14.335 10.8555 14.874V23.4053ZM6.27344 24.6123H22.1289C23.793 24.6123 24.7656 23.6631 24.7656 22.0225V9.07324L22.8789 7.78418V21.542C22.8789 22.3037 22.4688 22.7256 21.7305 22.7256H6.67188C5.92188 22.7256 5.51172 22.3037 5.51172 21.542V7.7959L3.625 9.07324V22.0225C3.625 23.6631 4.59766 24.6123 6.27344 24.6123ZM0.25 11.5693C0.25 12.0498 0.625 12.5068 1.25781 12.5068C1.58594 12.5068 1.85547 12.3311 2.10156 12.1318L13.832 2.28809C14.0898 2.05371 14.4062 2.05371 14.6641 2.28809L26.3945 12.1318C26.6289 12.3311 26.8984 12.5068 27.2266 12.5068C27.7773 12.5068 28.2227 12.167 28.2227 11.6045C28.2227 11.2529 28.1055 11.0186 27.8594 10.8076L15.6602 0.553711C14.793 -0.18457 13.7148 -0.18457 12.8359 0.553711L0.625 10.8076C0.367188 11.0186 0.25 11.2998 0.25 11.5693ZM21.8242 6.28418L24.7656 8.76855V3.35449C24.7656 2.83887 24.4375 2.51074 23.9219 2.51074H22.668C22.1641 2.51074 21.8242 2.83887 21.8242 3.35449V6.28418Z" fill="#694BF1"/>
</g>
<defs>
<clipPath id="clip0_48_2972">
<rect width="27.9727" height="26.5957" fill="white" transform="translate(0.25)"/>
</clipPath>
</defs>
</svg>
