<svg width="25" height="24" viewBox="0 0 25 24" fill="none" xmlns="http://www.w3.org/2000/svg">
<g clip-path="url(#clip0_48_599)">
<path d="M3.92969 22.5977H19.9375C22.3867 22.5977 23.6055 21.3789 23.6055 18.9648V4.65625C23.6055 2.24219 22.3867 1.02344 19.9375 1.02344H3.92969C1.48047 1.02344 0.25 2.23047 0.25 4.65625V18.9648C0.25 21.3906 1.48047 22.5977 3.92969 22.5977ZM3.75391 20.7109C2.71094 20.7109 2.13672 20.1602 2.13672 19.0703V8.01953C2.13672 6.94141 2.71094 6.37891 3.75391 6.37891H20.0898C21.1328 6.37891 21.7188 6.94141 21.7188 8.01953V19.0703C21.7188 20.1602 21.1328 20.7109 20.0898 20.7109H3.75391ZM9.64844 10.5859H10.3398C10.75 10.5859 10.8789 10.4688 10.8789 10.0586V9.36719C10.8789 8.95703 10.75 8.82812 10.3398 8.82812H9.64844C9.23828 8.82812 9.09766 8.95703 9.09766 9.36719V10.0586C9.09766 10.4688 9.23828 10.5859 9.64844 10.5859ZM13.5391 10.5859H14.2305C14.6406 10.5859 14.7812 10.4688 14.7812 10.0586V9.36719C14.7812 8.95703 14.6406 8.82812 14.2305 8.82812H13.5391C13.1289 8.82812 12.9883 8.95703 12.9883 9.36719V10.0586C12.9883 10.4688 13.1289 10.5859 13.5391 10.5859ZM17.4297 10.5859H18.1211C18.5312 10.5859 18.6719 10.4688 18.6719 10.0586V9.36719C18.6719 8.95703 18.5312 8.82812 18.1211 8.82812H17.4297C17.0195 8.82812 16.8906 8.95703 16.8906 9.36719V10.0586C16.8906 10.4688 17.0195 10.5859 17.4297 10.5859ZM5.75781 14.418H6.4375C6.85938 14.418 6.98828 14.3008 6.98828 13.8906V13.1992C6.98828 12.7891 6.85938 12.6719 6.4375 12.6719H5.75781C5.33594 12.6719 5.20703 12.7891 5.20703 13.1992V13.8906C5.20703 14.3008 5.33594 14.418 5.75781 14.418ZM9.64844 14.418H10.3398C10.75 14.418 10.8789 14.3008 10.8789 13.8906V13.1992C10.8789 12.7891 10.75 12.6719 10.3398 12.6719H9.64844C9.23828 12.6719 9.09766 12.7891 9.09766 13.1992V13.8906C9.09766 14.3008 9.23828 14.418 9.64844 14.418ZM13.5391 14.418H14.2305C14.6406 14.418 14.7812 14.3008 14.7812 13.8906V13.1992C14.7812 12.7891 14.6406 12.6719 14.2305 12.6719H13.5391C13.1289 12.6719 12.9883 12.7891 12.9883 13.1992V13.8906C12.9883 14.3008 13.1289 14.418 13.5391 14.418ZM17.4297 14.418H18.1211C18.5312 14.418 18.6719 14.3008 18.6719 13.8906V13.1992C18.6719 12.7891 18.5312 12.6719 18.1211 12.6719H17.4297C17.0195 12.6719 16.8906 12.7891 16.8906 13.1992V13.8906C16.8906 14.3008 17.0195 14.418 17.4297 14.418ZM5.75781 18.2617H6.4375C6.85938 18.2617 6.98828 18.1328 6.98828 17.7227V17.0312C6.98828 16.6211 6.85938 16.5039 6.4375 16.5039H5.75781C5.33594 16.5039 5.20703 16.6211 5.20703 17.0312V17.7227C5.20703 18.1328 5.33594 18.2617 5.75781 18.2617ZM9.64844 18.2617H10.3398C10.75 18.2617 10.8789 18.1328 10.8789 17.7227V17.0312C10.8789 16.6211 10.75 16.5039 10.3398 16.5039H9.64844C9.23828 16.5039 9.09766 16.6211 9.09766 17.0312V17.7227C9.09766 18.1328 9.23828 18.2617 9.64844 18.2617ZM13.5391 18.2617H14.2305C14.6406 18.2617 14.7812 18.1328 14.7812 17.7227V17.0312C14.7812 16.6211 14.6406 16.5039 14.2305 16.5039H13.5391C13.1289 16.5039 12.9883 16.6211 12.9883 17.0312V17.7227C12.9883 18.1328 13.1289 18.2617 13.5391 18.2617Z" fill="#496F56"/>
</g>
<defs>
<clipPath id="clip0_48_599">
<rect width="23.3555" height="21.5977" fill="white" transform="translate(0.25 1)"/>
</clipPath>
</defs>
</svg>
